<svg xmlns="http://www.w3.org/2000/svg" width="1200" height="360" viewBox="0 0 1200 360" role="img" aria-labelledby="title desc">
  <title id="title">Multi Viewer</title>
  <desc id="desc">让多个 AI 彼此独立地审同一份计划，而不是投票。；并排共识、独有视角、失败可见</desc>
  <rect width="1200" height="360" rx="28" fill="#171717"/>
  <path d="M48 74H1152M48 302H1152" stroke="#f7f3ed" stroke-opacity=".13"/>
  <rect x="58" y="58" width="176" height="30" rx="15" fill="#ffb000" fill-opacity=".18" stroke="#ffb000" stroke-opacity=".65"/>
  <text x="76" y="79" fill="#ffb000" font-size="15" font-weight="700" font-family="-apple-system, BlinkMacSystemFont, Segoe UI, PingFang SC, monospace">PLAN REVIEW CLI</text>
  <text x="58" y="147" fill="#f7f3ed" font-size="50" font-weight="760" font-family="-apple-system, BlinkMacSystemFont, Segoe UI, PingFang SC, sans-serif">Multi Viewer</text>
  <text x="58" y="193" fill="#f7f3ed" font-size="25" font-weight="430" font-family="-apple-system, BlinkMacSystemFont, Segoe UI, PingFang SC, sans-serif">让多个 AI 彼此独立地审同一份计划，而不是投票。</text>
  <path d="M58 230H660" stroke="#f7f3ed" stroke-opacity=".2"/>
  <g transform="translate(58 257)"><circle cx="8" cy="0" r="7" fill="#6dd4c0"/><text x="26" y="7" fill="#f7f3ed" font-size="19" font-weight="600" font-family="-apple-system, BlinkMacSystemFont, Segoe UI, PingFang SC, sans-serif">并排共识</text></g><g transform="translate(250 257)"><circle cx="8" cy="0" r="7" fill="#6dd4c0"/><text x="26" y="7" fill="#f7f3ed" font-size="19" font-weight="600" font-family="-apple-system, BlinkMacSystemFont, Segoe UI, PingFang SC, sans-serif">独有视角</text></g><g transform="translate(442 257)"><circle cx="8" cy="0" r="7" fill="#6dd4c0"/><text x="26" y="7" fill="#f7f3ed" font-size="19" font-weight="600" font-family="-apple-system, BlinkMacSystemFont, Segoe UI, PingFang SC, sans-serif">失败可见</text></g>
  <rect x="756" y="135" width="106" height="96" rx="16" fill="#ffffff" fill-opacity=".08" stroke="#ffb000" stroke-opacity=".7"/><text x="774" y="175" fill="#ffffff" font-size="19" font-weight="650" font-family="-apple-system, BlinkMacSystemFont, Segoe UI, PingFang SC, sans-serif">plan</text><circle cx="780" cy="201" r="7" fill="#6dd4c0"/><path d="M796 201h42" stroke="#f7f3ed" stroke-width="5" stroke-linecap="round"/><path d="M866 183h15" stroke="#ffb000" stroke-width="4"/><path d="M875 177l8 6-8 6" fill="none" stroke="#ffb000" stroke-width="4"/><rect x="886" y="135" width="106" height="96" rx="16" fill="#ffffff" fill-opacity=".08" stroke="#ffb000" stroke-opacity=".7"/><text x="904" y="175" fill="#ffffff" font-size="19" font-weight="650" font-family="-apple-system, BlinkMacSystemFont, Segoe UI, PingFang SC, sans-serif">independent</text><circle cx="910" cy="201" r="7" fill="#6dd4c0"/><path d="M926 201h42" stroke="#f7f3ed" stroke-width="5" stroke-linecap="round"/><path d="M996 183h15" stroke="#ffb000" stroke-width="4"/><path d="M1005 177l8 6-8 6" fill="none" stroke="#ffb000" stroke-width="4"/><rect x="1016" y="135" width="106" height="96" rx="16" fill="#ffffff" fill-opacity=".08" stroke="#ffb000" stroke-opacity=".7"/><text x="1034" y="175" fill="#ffffff" font-size="19" font-weight="650" font-family="-apple-system, BlinkMacSystemFont, Segoe UI, PingFang SC, sans-serif">compare</text><circle cx="1040" cy="201" r="7" fill="#6dd4c0"/><path d="M1056 201h42" stroke="#f7f3ed" stroke-width="5" stroke-linecap="round"/>
</svg>
